<svg xmlns="http://www.w3.org/2000/svg" width="238" height="223" viewBox="0 0 238 223" fill="none">
  <path d="M74.5354 38.5264H31.6586C30.2885 38.5264 28.9745 39.0706 28.0057 40.0394C27.0369 41.0082 26.4927 42.3222 26.4927 43.6923V59.7065C26.4927 61.0766 27.0369 62.3905 28.0057 63.3593C28.9745 64.3281 30.2885 64.8724 31.6586 64.8724H74.2771L79.7013 72.1046V43.6923C79.7013 42.3222 79.157 41.0082 78.1882 40.0394C77.2195 39.0706 75.9055 38.5264 74.5354 38.5264Z" fill="#263238"/>
  <path d="M35.8276 56.1576H34.2778V46.3424H35.8276V50.5423H37.5737V46.3424H39.1234V56.1576H37.5737V51.9577H35.8276V56.1576Z" fill="#4867F5"/>
  <path d="M40.2646 46.3579H41.8144V56.1731H40.2646V46.3579Z" fill="#4867F5"/>
  <path d="M44.6456 46.3579H49.4034V47.7579H47.7916V56.1576H46.2418V47.7579H44.6353L44.6456 46.3579Z" fill="#4867F5"/>
  <path d="M51.6142 56.1576H50.0645V46.3424H51.6142V50.5423H53.3551V46.3424H54.9049V56.1576H53.3551V51.9577H51.6039L51.6142 56.1576Z" fill="#4867F5"/>
  <path d="M57.5912 50.4854H59.704V51.8854H57.5912V54.7576H60.2516V56.1576H56.0518V46.3424H60.2516V47.7424H57.5912V50.4854Z" fill="#4867F5"/>
  <path d="M64.4207 56.1577C64.2943 55.7698 64.2469 55.3605 64.2812 54.954V53.4043C64.2812 52.4951 63.9764 52.1593 63.248 52.1593H62.7314V56.1473H61.1816V46.3322H63.5063C65.1025 46.3322 65.7896 47.076 65.7896 48.5845V49.3542C65.7896 50.3615 65.4642 51.0228 64.7564 51.3431C65.5262 51.6685 65.7896 52.4072 65.7896 53.4094V54.923C65.7617 55.3267 65.8198 55.7317 65.9601 56.1112L64.4207 56.1577ZM62.7417 47.7579V50.7696H63.3461C63.9196 50.7696 64.2708 50.5165 64.2708 49.7365V48.7653C64.2708 48.0679 64.0332 47.7321 63.4856 47.7321L62.7417 47.7579Z" fill="#4867F5"/>
  <path d="M68.3722 50.4854H70.4851V51.8854H68.3722V54.7576H71.0275V56.1576H66.8276V46.3424H71.0275V47.7424H68.3722V50.4854Z" fill="#4867F5"/>
  <path d="M72.1797 53.9879L71.9834 50.4441V46.3579H73.5332V50.4441L73.3369 53.9879H72.1797ZM73.4918 54.675V56.1576H72.0092V54.675H73.4918Z" fill="#4867F5"/>
  <path d="M146.858 39.0427C146.858 39.0427 144.946 38.366 144.512 40.0759C144.078 41.7858 146.61 42.4212 146.92 42.4212C147.23 42.4212 147.72 41.9925 147.41 41.0058C147.1 40.0191 146.858 39.0427 146.858 39.0427Z" fill="#263238" stroke="#263238" stroke-linecap="round" stroke-linejoin="round"/>
  <path d="M157.706 34.848C157.706 34.848 157.52 37.3173 157.52 38.304C157.52 39.2907 158.553 39.6626 159.07 39.6626C159.587 39.6626 159.814 40.8353 159.504 42.0699C159.194 43.3046 158.145 44.0433 155.614 44.0433C153.083 44.0433 151.543 42.9326 151.481 42.1319C151.419 41.3312 152.034 37.8701 153.088 36.966C154.142 36.062 157.706 34.848 157.706 34.848Z" fill="#263238" stroke="#263238" stroke-linecap="round" stroke-linejoin="round"/>
  <path d="M148.464 42.4367V43.3924C148.465 43.5427 148.508 43.6898 148.59 43.8162C148.671 43.9426 148.787 44.0429 148.924 44.1052C149.368 44.2928 149.839 44.4062 150.319 44.441C151.286 44.4412 152.242 44.2296 153.119 43.8211C153.24 43.7693 153.344 43.6829 153.416 43.5727C153.489 43.4624 153.527 43.3332 153.527 43.2012V42.2042C153.526 42.1434 153.51 42.0838 153.48 42.0306C153.451 41.9775 153.409 41.9323 153.358 41.8992C153.307 41.8661 153.248 41.8459 153.188 41.8406C153.127 41.8352 153.066 41.8448 153.01 41.8684L152.809 41.9717C152.809 41.9717 149.761 42.3592 148.464 42.4367Z" fill="#92E3A9" stroke="#263238" stroke-linecap="round" stroke-linejoin="round"/>
  <path d="M147.111 34.3521C146.773 35.7092 146.545 37.0912 146.429 38.4848C146.243 40.7682 146.429 42.8655 147.353 42.9275C147.988 42.9286 148.609 42.7495 149.146 42.4109C149.146 42.4109 151.305 42.6589 152.044 42.2921L152.788 41.9201L153.341 38.304C153.341 38.304 153.403 32.6887 152.354 32.3168C151.305 31.9448 147.111 34.3521 147.111 34.3521Z" fill="white" stroke="#263238" stroke-linecap="round" stroke-linejoin="round"/>
  <path d="M148.774 36.8835L148.283 38.1802C148.283 38.1802 147.292 38.4281 147.416 38.9189C147.539 39.4097 148.196 39.3373 148.196 39.3373" stroke="#263238" stroke-linecap="round" stroke-linejoin="round"/>
  <path d="M150.36 37.4465C150.262 37.7151 150.061 37.8908 149.921 37.8391C149.782 37.7875 149.74 37.524 149.844 37.2502C149.947 36.9764 150.143 36.8008 150.288 36.8576C150.433 36.9144 150.474 37.1934 150.36 37.4465Z" fill="#263238"/>
  <path d="M148.036 36.8214C147.932 37.0952 147.736 37.2708 147.591 37.2191C147.447 37.1675 147.416 36.8989 147.514 36.6302C147.612 36.3616 147.813 36.1808 147.958 36.2325C148.103 36.2841 148.134 36.5527 148.036 36.8214Z" fill="#263238"/>
  <path d="M149.885 35.7108C149.885 35.7108 151.057 35.4008 151.181 36.5167" stroke="#263238" stroke-linecap="round" stroke-linejoin="round"/>
  <path d="M148.345 35.4009C148.345 35.4009 147.312 35.0342 146.987 35.9175" stroke="#263238" stroke-linecap="round" stroke-linejoin="round"/>
  <path d="M149.146 42.4366L150.809 41.7599" stroke="#263238" stroke-linecap="round" stroke-linejoin="round"/>
  <path d="M147.891 31.5109C147.891 31.5109 145.918 29.1656 144.435 30.891C142.952 32.6164 143.402 35.2149 146.042 35.3388C148.681 35.4628 151.657 32.8696 151.657 32.8696C151.657 32.8696 151.347 36.2635 152.086 37.4362C152.824 38.6089 153.382 39.4096 153.382 39.4096C153.382 39.4096 154.415 40.0863 156.162 38.7328C157.908 37.3794 158.321 34.0835 157.086 31.8777C155.852 29.6719 153.692 28.4217 151.099 29.2948C148.506 30.1678 147.891 31.5109 147.891 31.5109Z" fill="#263238" stroke="#263238" stroke-linecap="round" stroke-linejoin="round"/>
  <path d="M152.168 39.3527C152.168 39.3527 154.39 37.3174 154.39 38.49C154.39 39.6627 153.357 40.7114 152.54 40.4634" fill="white"/>
  <path d="M152.168 39.3527C152.168 39.3527 154.39 37.3174 154.39 38.49C154.39 39.6627 153.357 40.7114 152.54 40.4634" stroke="#263238" stroke-linecap="round" stroke-linejoin="round"/>
  <path d="M147.416 40.2928C147.707 40.503 148.058 40.6161 148.418 40.6161C148.777 40.6161 149.128 40.503 149.42 40.2928" stroke="#263238" stroke-linecap="round" stroke-linejoin="round"/>
  <path d="M158.879 44.1935C162.824 39.9958 162.619 33.3952 158.421 29.4505C154.223 25.5059 147.623 25.711 143.678 29.9087C139.733 34.1064 139.939 40.707 144.136 44.6517C148.334 48.5964 154.935 48.3912 158.879 44.1935Z" stroke="#263238" stroke-linecap="round" stroke-linejoin="round"/>
  <path d="M222.257 121.897C228.185 120.511 231.867 114.581 230.481 108.653C229.095 102.724 223.165 99.042 217.237 100.428C211.308 101.814 207.626 107.744 209.012 113.672C210.398 119.601 216.328 123.283 222.257 121.897Z" stroke="#263238" stroke-linecap="round" stroke-linejoin="round"/>
  <path d="M223.509 114.413C223.509 115.139 223.294 115.848 222.891 116.451C222.488 117.054 221.915 117.524 221.245 117.802C220.575 118.079 219.838 118.152 219.126 118.01C218.415 117.869 217.761 117.52 217.248 117.007C216.735 116.494 216.386 115.84 216.244 115.129C216.103 114.417 216.175 113.68 216.453 113.01C216.731 112.339 217.201 111.767 217.804 111.363C218.407 110.96 219.116 110.745 219.842 110.745C220.814 110.745 221.747 111.132 222.435 111.82C223.123 112.507 223.509 113.44 223.509 114.413Z" fill="#4867F5" stroke="#263238" stroke-linecap="round" stroke-linejoin="round"/>
  <path d="M225.085 116.856C225.876 115.869 226.372 114.678 226.516 113.421C226.66 112.163 226.446 110.891 225.898 109.75C225.35 108.609 224.491 107.647 223.42 106.973C222.349 106.299 221.11 105.941 219.844 105.941C218.579 105.941 217.339 106.299 216.268 106.973C215.197 107.647 214.338 108.609 213.79 109.75C213.242 110.891 213.028 112.163 213.172 113.421C213.316 114.678 213.812 115.869 214.603 116.856H225.085Z" fill="white" stroke="#263238" stroke-linecap="round" stroke-linejoin="round"/>
  <path d="M222.46 114.955H217.057C216.741 114.955 216.428 114.893 216.135 114.772C215.843 114.651 215.578 114.474 215.354 114.25C215.131 114.027 214.954 113.761 214.833 113.469C214.712 113.177 214.649 112.864 214.649 112.548C214.649 112.232 214.711 111.919 214.831 111.626C214.952 111.334 215.129 111.068 215.353 110.844C215.577 110.621 215.842 110.443 216.135 110.323C216.427 110.202 216.74 110.14 217.057 110.141H222.46C222.777 110.14 223.09 110.202 223.382 110.323C223.675 110.443 223.94 110.621 224.164 110.844C224.388 111.068 224.565 111.334 224.686 111.626C224.806 111.919 224.868 112.232 224.868 112.548C224.868 113.187 224.614 113.799 224.162 114.25C223.711 114.702 223.099 114.955 222.46 114.955Z" fill="#4867F5" stroke="#263238" stroke-linecap="round" stroke-linejoin="round"/>
  <path d="M215.755 112.352C215.866 112.042 216.067 111.772 216.334 111.579C216.6 111.386 216.919 111.278 217.248 111.269C217.577 111.26 217.901 111.351 218.178 111.529C218.454 111.708 218.67 111.966 218.798 112.269" stroke="#263238" stroke-width="2" stroke-linecap="round" stroke-linejoin="round"/>
  <path d="M220.807 112.352C220.918 112.042 221.12 111.772 221.386 111.579C221.653 111.386 221.971 111.278 222.3 111.269C222.629 111.26 222.953 111.351 223.23 111.529C223.506 111.708 223.723 111.966 223.85 112.269" stroke="#263238" stroke-width="2" stroke-linecap="round" stroke-linejoin="round"/>
  <path d="M218.958 113.468C218.982 113.695 219.089 113.905 219.259 114.058C219.429 114.21 219.649 114.295 219.878 114.295C220.106 114.295 220.326 114.21 220.496 114.058C220.666 113.905 220.773 113.695 220.797 113.468H218.958Z" fill="white" stroke="#263238" stroke-linecap="round" stroke-linejoin="round"/>
  <path d="M228.525 113.85C228.433 113.85 228.342 113.832 228.256 113.796C228.171 113.761 228.094 113.709 228.029 113.644C227.963 113.579 227.912 113.501 227.876 113.416C227.841 113.331 227.823 113.24 227.823 113.147V111.551C227.823 111.459 227.841 111.367 227.876 111.282C227.912 111.197 227.963 111.12 228.029 111.054C228.094 110.989 228.171 110.937 228.256 110.902C228.342 110.867 228.433 110.849 228.525 110.849C228.618 110.849 228.709 110.867 228.794 110.902C228.879 110.937 228.957 110.989 229.022 111.054C229.087 111.12 229.139 111.197 229.174 111.282C229.21 111.367 229.228 111.459 229.228 111.551V113.132C229.23 113.225 229.213 113.318 229.179 113.405C229.145 113.492 229.093 113.572 229.028 113.639C228.962 113.706 228.884 113.759 228.798 113.795C228.712 113.831 228.619 113.85 228.525 113.85Z" fill="#263238" stroke="#263238" stroke-linecap="round" stroke-linejoin="round"/>
  <path d="M210.972 113.85C210.879 113.85 210.788 113.832 210.703 113.796C210.618 113.761 210.54 113.709 210.475 113.644C210.41 113.579 210.358 113.501 210.323 113.416C210.287 113.331 210.269 113.24 210.269 113.147V111.551C210.269 111.459 210.287 111.367 210.323 111.282C210.358 111.197 210.41 111.12 210.475 111.054C210.54 110.989 210.618 110.937 210.703 110.902C210.788 110.867 210.879 110.849 210.972 110.849C211.064 110.849 211.155 110.867 211.24 110.902C211.326 110.937 211.403 110.989 211.468 111.054C211.534 111.12 211.585 111.197 211.621 111.282C211.656 111.367 211.674 111.459 211.674 111.551V113.132C211.676 113.225 211.66 113.318 211.625 113.405C211.591 113.492 211.539 113.572 211.474 113.639C211.409 113.706 211.33 113.759 211.244 113.795C211.158 113.831 211.065 113.85 210.972 113.85Z" fill="#263238" stroke="#263238" stroke-linecap="round" stroke-linejoin="round"/>
  <path d="M212.268 111.649C212.073 111.648 211.887 111.569 211.749 111.431C211.612 111.293 211.535 111.106 211.535 110.911V109.753C211.533 108.5 211.907 107.274 212.609 106.235C212.66 106.147 212.728 106.07 212.809 106.009C212.891 105.948 212.984 105.905 213.084 105.881C213.183 105.858 213.286 105.856 213.386 105.875C213.486 105.893 213.581 105.932 213.666 105.989C213.75 106.047 213.822 106.121 213.876 106.207C213.93 106.293 213.966 106.389 213.982 106.49C213.997 106.591 213.991 106.694 213.965 106.792C213.938 106.89 213.892 106.982 213.828 107.062C213.291 107.857 213.005 108.794 213.007 109.753V110.911C213.007 111.106 212.929 111.294 212.791 111.433C212.652 111.571 212.464 111.649 212.268 111.649Z" fill="#263238"/>
  <path d="M226.536 107.021C226.476 107.021 226.416 107.006 226.363 106.977C226.31 106.948 226.264 106.906 226.232 106.855C225.758 106.149 225.117 105.571 224.367 105.172C223.616 104.773 222.779 104.565 221.928 104.567H217.827C216.976 104.565 216.139 104.773 215.388 105.172C214.638 105.571 213.997 106.149 213.523 106.855C213.468 106.937 213.382 106.993 213.286 107.011C213.189 107.03 213.088 107.009 213.007 106.954C212.966 106.927 212.931 106.892 212.904 106.851C212.877 106.81 212.858 106.764 212.849 106.716C212.84 106.668 212.84 106.618 212.85 106.57C212.861 106.522 212.881 106.477 212.909 106.437C213.45 105.632 214.182 104.972 215.039 104.516C215.895 104.06 216.851 103.822 217.821 103.823H221.923C222.895 103.822 223.852 104.061 224.71 104.518C225.567 104.975 226.299 105.635 226.841 106.442C226.869 106.483 226.889 106.528 226.898 106.576C226.908 106.624 226.908 106.674 226.899 106.722C226.889 106.77 226.87 106.816 226.842 106.857C226.815 106.897 226.779 106.932 226.738 106.959C226.678 106.998 226.608 107.02 226.536 107.021Z" fill="#263238"/>
  <path d="M227.487 111.649C227.291 111.649 227.103 111.571 226.965 111.433C226.826 111.294 226.748 111.106 226.748 110.911V109.753C226.75 108.794 226.464 107.857 225.927 107.062C225.865 106.982 225.821 106.89 225.796 106.792C225.771 106.694 225.767 106.592 225.783 106.492C225.799 106.393 225.836 106.297 225.891 106.212C225.945 106.127 226.017 106.054 226.101 105.998C226.185 105.942 226.279 105.903 226.378 105.885C226.478 105.867 226.58 105.869 226.678 105.892C226.777 105.914 226.87 105.957 226.951 106.017C227.032 106.077 227.1 106.153 227.151 106.241C227.852 107.278 228.224 108.502 228.22 109.753V110.911C228.22 111.106 228.143 111.293 228.006 111.431C227.868 111.569 227.682 111.648 227.487 111.649Z" fill="#263238"/>
  <path d="M212.361 114.893C211.975 114.893 211.604 114.74 211.331 114.467C211.058 114.193 210.904 113.823 210.904 113.437V111.122C210.904 110.736 211.058 110.365 211.331 110.092C211.604 109.819 211.975 109.665 212.361 109.665C212.747 109.665 213.118 109.819 213.391 110.092C213.664 110.365 213.818 110.736 213.818 111.122V113.437C213.818 113.823 213.664 114.193 213.391 114.467C213.118 114.74 212.747 114.893 212.361 114.893Z" fill="white" stroke="#263238" stroke-linecap="round" stroke-linejoin="round"/>
  <path d="M212.511 109.665H212.211V114.893H212.511V109.665Z" fill="#92E3A9" stroke="#263238" stroke-linecap="round" stroke-linejoin="round"/>
  <path d="M228.675 111.122C228.675 110.318 228.023 109.665 227.218 109.665C226.413 109.665 225.761 110.318 225.761 111.122V113.437C225.761 114.241 226.413 114.893 227.218 114.893C228.023 114.893 228.675 114.241 228.675 113.437V111.122Z" fill="white" stroke="#263238" stroke-linecap="round" stroke-linejoin="round"/>
  <path d="M227.368 109.665H227.068V114.893H227.368V109.665Z" fill="#92E3A9" stroke="#263238" stroke-linecap="round" stroke-linejoin="round"/>
  <path d="M219.867 109.19C220.381 109.188 220.885 109.059 221.336 108.813C221.787 108.568 222.17 108.215 222.45 107.785L223.086 106.798C222.078 106.241 220.945 105.953 219.793 105.962C218.642 105.971 217.513 106.277 216.515 106.85L217.465 108.038C217.755 108.397 218.121 108.686 218.536 108.886C218.952 109.085 219.406 109.189 219.867 109.19Z" fill="#4867F5" stroke="#263238" stroke-linecap="round" stroke-linejoin="round"/>
  <path d="M219.918 115.549C219.978 115.549 220.026 115.5 220.026 115.441C220.026 115.381 219.978 115.333 219.918 115.333C219.858 115.333 219.81 115.381 219.81 115.441C219.81 115.5 219.858 115.549 219.918 115.549Z" fill="#263238"/>
  <path d="M220.026 115.818C220.025 115.79 220.013 115.764 219.993 115.745C219.973 115.725 219.946 115.715 219.918 115.715C219.904 115.714 219.89 115.716 219.877 115.721C219.864 115.726 219.852 115.733 219.842 115.743C219.832 115.753 219.824 115.764 219.818 115.777C219.813 115.79 219.81 115.804 219.81 115.818C219.81 115.846 219.821 115.874 219.842 115.894C219.862 115.914 219.889 115.926 219.918 115.926C219.947 115.926 219.974 115.914 219.995 115.894C220.015 115.874 220.026 115.846 220.026 115.818Z" fill="#263238"/>
  <path d="M219.598 115.76C219.625 115.752 219.648 115.733 219.661 115.708C219.675 115.683 219.678 115.654 219.67 115.627C219.66 115.6 219.64 115.578 219.614 115.564C219.589 115.551 219.559 115.548 219.531 115.555C219.504 115.563 219.481 115.582 219.468 115.607C219.454 115.632 219.451 115.661 219.459 115.688C219.469 115.715 219.489 115.737 219.515 115.751C219.54 115.764 219.57 115.767 219.598 115.76Z" fill="#263238"/>
  <path d="M220.275 115.76C220.302 115.752 220.325 115.733 220.338 115.708C220.352 115.683 220.355 115.654 220.347 115.627C220.337 115.599 220.318 115.576 220.292 115.563C220.266 115.549 220.236 115.546 220.208 115.555C220.194 115.559 220.182 115.565 220.171 115.574C220.161 115.583 220.152 115.595 220.146 115.607C220.139 115.62 220.136 115.633 220.135 115.647C220.134 115.661 220.136 115.675 220.141 115.688C220.149 115.716 220.168 115.738 220.193 115.752C220.218 115.765 220.248 115.768 220.275 115.76Z" fill="#263238"/>
  <path d="M206.203 54.8348H165.098V36.5217V31.6658L169.959 36.5217H206.203V54.8348Z" fill="#D6D6D6" stroke="#263238" stroke-linecap="round" stroke-linejoin="round"/>
  <path d="M206.203 81.3616H165.098V63.0537V58.1978L169.959 63.0537H206.203V81.3616Z" fill="#D6D6D6" stroke="#263238" stroke-linecap="round" stroke-linejoin="round"/>
  <path d="M192.545 42.8241H202.221" stroke="#263238" stroke-linecap="round" stroke-linejoin="round"/>
  <path d="M179.005 42.8241H190.06" stroke="#263238" stroke-linecap="round" stroke-linejoin="round"/>
  <path d="M170.714 42.8241H177.068" stroke="#263238" stroke-linecap="round" stroke-linejoin="round"/>
  <path d="M188.123 45.8668H202.22" stroke="#263238" stroke-linecap="round" stroke-linejoin="round"/>
  <path d="M170.714 45.8668H185.638" stroke="#263238" stroke-linecap="round" stroke-linejoin="round"/>
  <path d="M199.457 48.9044H202.221" stroke="#263238" stroke-linecap="round" stroke-linejoin="round"/>
  <path d="M183.98 48.9044H197.246" stroke="#263238" stroke-linecap="round" stroke-linejoin="round"/>
  <path d="M170.714 48.9044H181.769" stroke="#263238" stroke-linecap="round" stroke-linejoin="round"/>
  <path d="M192.545 68.5244H202.221" stroke="#263238" stroke-linecap="round" stroke-linejoin="round"/>
  <path d="M179.005 68.5244H190.06" stroke="#263238" stroke-linecap="round" stroke-linejoin="round"/>
  <path d="M170.714 68.5244H177.068" stroke="#263238" stroke-linecap="round" stroke-linejoin="round"/>
  <path d="M188.123 71.5671H202.22" stroke="#263238" stroke-linecap="round" stroke-linejoin="round"/>
  <path d="M170.714 71.5671H185.638" stroke="#263238" stroke-linecap="round" stroke-linejoin="round"/>
  <path d="M199.457 74.6046H202.221" stroke="#263238" stroke-linecap="round" stroke-linejoin="round"/>
  <path d="M183.98 74.6046H197.246" stroke="#263238" stroke-linecap="round" stroke-linejoin="round"/>
  <path d="M170.714 74.6046H181.769" stroke="#263238" stroke-linecap="round" stroke-linejoin="round"/>
  <path d="M165.098 155.962H206.203V111.675V106.819L201.342 111.675H165.098V155.962Z" fill="#4867F5" stroke="#263238" stroke-linecap="round" stroke-linejoin="round"/>
  <path d="M192.545 117.719H202.221" stroke="#263238" stroke-linecap="round" stroke-linejoin="round"/>
  <path d="M179.005 117.719H190.06" stroke="#263238" stroke-linecap="round" stroke-linejoin="round"/>
  <path d="M170.714 117.719H177.068" stroke="#263238" stroke-linecap="round" stroke-linejoin="round"/>
  <path d="M188.123 120.757H202.22" stroke="#263238" stroke-linecap="round" stroke-linejoin="round"/>
  <path d="M170.714 120.757H185.638" stroke="#263238" stroke-linecap="round" stroke-linejoin="round"/>
  <path d="M199.457 123.8H202.221" stroke="#263238" stroke-linecap="round" stroke-linejoin="round"/>
  <path d="M183.98 123.8H197.246" stroke="#263238" stroke-linecap="round" stroke-linejoin="round"/>
  <path d="M170.714 123.8H181.769" stroke="#263238" stroke-linecap="round" stroke-linejoin="round"/>
  <path d="M192.545 126.285H202.221" stroke="#263238" stroke-linecap="round" stroke-linejoin="round"/>
  <path d="M179.005 126.285H190.06" stroke="#263238" stroke-linecap="round" stroke-linejoin="round"/>
  <path d="M170.714 126.285H177.068" stroke="#263238" stroke-linecap="round" stroke-linejoin="round"/>
  <path d="M188.123 129.327H202.221" stroke="#263238" stroke-linecap="round" stroke-linejoin="round"/>
  <path d="M170.714 129.327H185.638" stroke="#263238" stroke-linecap="round" stroke-linejoin="round"/>
  <path d="M199.457 132.365H202.221" stroke="#263238" stroke-linecap="round" stroke-linejoin="round"/>
  <path d="M183.98 132.365H197.246" stroke="#263238" stroke-linecap="round" stroke-linejoin="round"/>
  <path d="M170.714 132.365H181.769" stroke="#263238" stroke-linecap="round" stroke-linejoin="round"/>
  <path d="M192.545 134.855H202.221" stroke="#263238" stroke-linecap="round" stroke-linejoin="round"/>
  <path d="M179.005 134.855H190.06" stroke="#263238" stroke-linecap="round" stroke-linejoin="round"/>
  <path d="M170.714 134.855H177.068" stroke="#263238" stroke-linecap="round" stroke-linejoin="round"/>
  <path d="M188.123 137.892H202.221" stroke="#263238" stroke-linecap="round" stroke-linejoin="round"/>
  <path d="M170.714 137.892H185.638" stroke="#263238" stroke-linecap="round" stroke-linejoin="round"/>
  <path d="M199.457 140.935H202.221" stroke="#263238" stroke-linecap="round" stroke-linejoin="round"/>
  <path d="M183.98 140.935H197.246" stroke="#263238" stroke-linecap="round" stroke-linejoin="round"/>
  <path d="M170.714 140.935H181.769" stroke="#263238" stroke-linecap="round" stroke-linejoin="round"/>
  <path d="M192.545 143.42H202.221" stroke="#263238" stroke-linecap="round" stroke-linejoin="round"/>
  <path d="M179.005 143.42H190.06" stroke="#263238" stroke-linecap="round" stroke-linejoin="round"/>
  <path d="M170.714 143.42H177.068" stroke="#263238" stroke-linecap="round" stroke-linejoin="round"/>
  <path d="M188.123 146.463H202.221" stroke="#263238" stroke-linecap="round" stroke-linejoin="round"/>
  <path d="M170.714 146.463H185.638" stroke="#263238" stroke-linecap="round" stroke-linejoin="round"/>
  <path d="M199.457 149.5H202.221" stroke="#263238" stroke-linecap="round" stroke-linejoin="round"/>
  <path d="M183.98 149.5H197.246" stroke="#263238" stroke-linecap="round" stroke-linejoin="round"/>
  <path d="M170.714 149.5H181.769" stroke="#263238" stroke-linecap="round" stroke-linejoin="round"/>
  <path d="M219.749 180.589C225.837 180.589 230.773 175.653 230.773 169.565C230.773 163.476 225.837 158.541 219.749 158.541C213.66 158.541 208.725 163.476 208.725 169.565C208.725 175.653 213.66 180.589 219.749 180.589Z" stroke="#263238" stroke-linecap="round" stroke-linejoin="round"/>
  <path d="M223.509 172.814C223.51 173.539 223.296 174.249 222.894 174.853C222.491 175.457 221.919 175.928 221.249 176.206C220.579 176.485 219.841 176.558 219.129 176.417C218.417 176.276 217.763 175.927 217.25 175.414C216.736 174.902 216.387 174.248 216.245 173.536C216.103 172.825 216.175 172.087 216.453 171.417C216.73 170.746 217.2 170.173 217.803 169.77C218.407 169.366 219.116 169.151 219.842 169.151C220.813 169.151 221.746 169.537 222.433 170.224C223.121 170.91 223.508 171.842 223.509 172.814Z" fill="#4867F5" stroke="#263238" stroke-linecap="round" stroke-linejoin="round"/>
  <path d="M225.085 175.257C225.876 174.27 226.372 173.079 226.516 171.821C226.66 170.564 226.446 169.292 225.898 168.151C225.35 167.01 224.491 166.048 223.42 165.374C222.349 164.7 221.11 164.342 219.844 164.342C218.579 164.342 217.339 164.7 216.268 165.374C215.197 166.048 214.338 167.01 213.79 168.151C213.242 169.292 213.028 170.564 213.172 171.821C213.316 173.079 213.812 174.27 214.603 175.257H225.085Z" fill="white" stroke="#263238" stroke-linecap="round" stroke-linejoin="round"/>
  <path d="M222.46 173.356H217.057C216.741 173.356 216.428 173.294 216.135 173.173C215.843 173.052 215.578 172.875 215.354 172.651C215.131 172.428 214.954 172.162 214.833 171.87C214.712 171.578 214.649 171.265 214.649 170.949C214.649 170.633 214.712 170.32 214.833 170.028C214.954 169.736 215.131 169.47 215.354 169.247C215.578 169.023 215.843 168.846 216.135 168.725C216.428 168.604 216.741 168.542 217.057 168.542H222.46C222.776 168.542 223.089 168.604 223.381 168.725C223.674 168.846 223.939 169.023 224.162 169.247C224.386 169.47 224.563 169.736 224.684 170.028C224.805 170.32 224.868 170.633 224.868 170.949C224.868 171.588 224.614 172.2 224.162 172.651C223.711 173.103 223.099 173.356 222.46 173.356Z" fill="#4867F5" stroke="#263238" stroke-linecap="round" stroke-linejoin="round"/>
  <path d="M215.755 170.753C215.866 170.443 216.067 170.173 216.334 169.98C216.6 169.787 216.919 169.679 217.248 169.67C217.577 169.661 217.901 169.752 218.178 169.93C218.454 170.109 218.67 170.367 218.798 170.67" stroke="#263238" stroke-width="2" stroke-linecap="round" stroke-linejoin="round"/>
  <path d="M220.807 170.753C220.918 170.443 221.12 170.173 221.386 169.98C221.653 169.787 221.971 169.679 222.3 169.67C222.629 169.661 222.953 169.752 223.23 169.93C223.506 170.109 223.723 170.367 223.85 170.67" stroke="#263238" stroke-width="2" stroke-linecap="round" stroke-linejoin="round"/>
  <path d="M218.958 171.868C218.982 172.095 219.089 172.306 219.259 172.458C219.429 172.611 219.649 172.695 219.878 172.695C220.106 172.695 220.326 172.611 220.496 172.458C220.666 172.306 220.773 172.095 220.797 171.868H218.958Z" fill="white" stroke="#263238" stroke-linecap="round" stroke-linejoin="round"/>
  <path d="M228.525 172.251C228.339 172.251 228.16 172.177 228.029 172.045C227.897 171.913 227.823 171.734 227.823 171.548V169.957C227.823 169.771 227.897 169.592 228.029 169.46C228.16 169.329 228.339 169.255 228.525 169.255C228.712 169.255 228.89 169.329 229.022 169.46C229.154 169.592 229.228 169.771 229.228 169.957V171.553C229.227 171.739 229.152 171.916 229.02 172.047C228.889 172.177 228.711 172.251 228.525 172.251Z" fill="#263238" stroke="#263238" stroke-linecap="round" stroke-linejoin="round"/>
  <path d="M210.972 172.251C210.785 172.251 210.607 172.177 210.475 172.045C210.343 171.913 210.269 171.734 210.269 171.548V169.957C210.269 169.771 210.343 169.592 210.475 169.46C210.607 169.329 210.785 169.255 210.972 169.255C211.158 169.255 211.337 169.329 211.468 169.46C211.6 169.592 211.674 169.771 211.674 169.957V171.553C211.673 171.739 211.598 171.916 211.467 172.047C211.335 172.177 211.157 172.251 210.972 172.251Z" fill="#263238" stroke="#263238" stroke-linecap="round" stroke-linejoin="round"/>
  <path d="M212.268 170.055C212.073 170.054 211.887 169.976 211.749 169.837C211.612 169.699 211.535 169.512 211.535 169.317V168.154C211.533 166.901 211.907 165.675 212.609 164.636C212.725 164.491 212.892 164.395 213.076 164.367C213.259 164.339 213.447 164.382 213.601 164.486C213.755 164.59 213.864 164.749 213.906 164.93C213.948 165.111 213.92 165.301 213.828 165.463C213.291 166.257 213.005 167.195 213.007 168.154V169.317C213.007 169.513 212.929 169.7 212.791 169.839C212.652 169.977 212.464 170.055 212.268 170.055Z" fill="#263238"/>
  <path d="M226.536 165.422C226.477 165.421 226.417 165.407 226.364 165.379C226.311 165.351 226.266 165.311 226.232 165.261C225.759 164.554 225.118 163.975 224.368 163.575C223.617 163.175 222.779 162.966 221.928 162.968H217.827C216.977 162.968 216.14 163.177 215.39 163.576C214.64 163.975 213.999 164.552 213.524 165.256C213.496 165.296 213.462 165.331 213.421 165.357C213.381 165.384 213.336 165.402 213.288 165.411C213.241 165.42 213.192 165.42 213.145 165.41C213.097 165.4 213.052 165.381 213.012 165.354C212.972 165.327 212.938 165.292 212.911 165.252C212.885 165.212 212.866 165.166 212.857 165.119C212.848 165.071 212.848 165.023 212.858 164.975C212.868 164.928 212.887 164.883 212.914 164.843C213.456 164.038 214.187 163.378 215.044 162.922C215.901 162.466 216.856 162.228 217.827 162.229H221.928C222.9 162.229 223.857 162.468 224.714 162.925C225.572 163.382 226.304 164.042 226.846 164.848C226.874 164.889 226.894 164.934 226.904 164.982C226.914 165.03 226.914 165.08 226.904 165.128C226.895 165.176 226.875 165.222 226.848 165.263C226.82 165.303 226.784 165.338 226.743 165.365C226.681 165.403 226.609 165.423 226.536 165.422Z" fill="#263238"/>
  <path d="M227.487 170.055C227.291 170.055 227.103 169.977 226.965 169.839C226.826 169.7 226.748 169.512 226.748 169.316V168.154C226.75 167.197 226.463 166.261 225.927 165.468C225.871 165.387 225.831 165.297 225.81 165.201C225.789 165.105 225.787 165.006 225.805 164.909C225.823 164.813 225.86 164.721 225.914 164.639C225.967 164.557 226.037 164.486 226.118 164.431C226.2 164.376 226.291 164.338 226.387 164.319C226.484 164.3 226.583 164.3 226.679 164.32C226.775 164.339 226.866 164.378 226.948 164.433C227.029 164.488 227.098 164.559 227.151 164.641C227.851 165.679 228.224 166.902 228.221 168.154V169.316C228.221 169.511 228.144 169.699 228.006 169.837C227.869 169.975 227.682 170.054 227.487 170.055Z" fill="#263238"/>
  <path d="M212.361 173.299C211.975 173.299 211.604 173.146 211.331 172.873C211.058 172.599 210.904 172.229 210.904 171.843V169.523C210.904 169.137 211.058 168.766 211.331 168.493C211.604 168.22 211.975 168.066 212.361 168.066C212.747 168.066 213.118 168.22 213.391 168.493C213.664 168.766 213.818 169.137 213.818 169.523V171.843C213.816 172.228 213.663 172.598 213.39 172.871C213.117 173.144 212.747 173.298 212.361 173.299Z" fill="white" stroke="#263238" stroke-linecap="round" stroke-linejoin="round"/>
  <path d="M212.511 168.066H212.211V173.294H212.511V168.066Z" fill="#92E3A9" stroke="#263238" stroke-linecap="round" stroke-linejoin="round"/>
  <path d="M228.675 169.523C228.675 168.719 228.023 168.066 227.218 168.066C226.413 168.066 225.761 168.719 225.761 169.523V171.837C225.761 172.642 226.413 173.294 227.218 173.294C228.023 173.294 228.675 172.642 228.675 171.837V169.523Z" fill="white" stroke="#263238" stroke-linecap="round" stroke-linejoin="round"/>
  <path d="M227.368 168.066H227.068V173.294H227.368V168.066Z" fill="#92E3A9" stroke="#263238" stroke-linecap="round" stroke-linejoin="round"/>
  <path d="M219.867 167.591C220.381 167.589 220.885 167.46 221.336 167.214C221.787 166.969 222.17 166.616 222.45 166.186L223.086 165.204C222.078 164.649 220.945 164.361 219.794 164.369C218.643 164.377 217.514 164.681 216.515 165.251L217.465 166.439C217.755 166.798 218.121 167.087 218.536 167.286C218.952 167.486 219.406 167.59 219.867 167.591Z" fill="#4867F5" stroke="#263238" stroke-linecap="round" stroke-linejoin="round"/>
  <path d="M219.918 173.95C219.978 173.95 220.026 173.901 220.026 173.841C220.026 173.782 219.978 173.733 219.918 173.733C219.858 173.733 219.81 173.782 219.81 173.841C219.81 173.901 219.858 173.95 219.918 173.95Z" fill="#263238"/>
  <path d="M219.918 174.332C219.978 174.332 220.026 174.283 220.026 174.224C220.026 174.164 219.978 174.115 219.918 174.115C219.858 174.115 219.81 174.164 219.81 174.224C219.81 174.283 219.858 174.332 219.918 174.332Z" fill="#263238"/>
  <path d="M219.598 174.161C219.625 174.153 219.648 174.134 219.661 174.109C219.675 174.084 219.678 174.055 219.67 174.028C219.659 174.001 219.64 173.979 219.614 173.965C219.588 173.952 219.559 173.949 219.531 173.956C219.504 173.965 219.482 173.984 219.469 174.009C219.456 174.033 219.452 174.062 219.459 174.089C219.463 174.103 219.47 174.116 219.479 174.128C219.488 174.139 219.5 174.148 219.513 174.155C219.526 174.162 219.54 174.166 219.555 174.167C219.569 174.168 219.584 174.166 219.598 174.161Z" fill="#263238"/>
  <path d="M220.275 174.161C220.302 174.153 220.325 174.134 220.338 174.109C220.352 174.084 220.355 174.055 220.347 174.027C220.337 174 220.318 173.977 220.292 173.964C220.266 173.95 220.236 173.947 220.208 173.955C220.194 173.959 220.182 173.966 220.171 173.975C220.161 173.984 220.152 173.995 220.146 174.008C220.139 174.02 220.136 174.034 220.135 174.048C220.134 174.062 220.136 174.076 220.141 174.089C220.144 174.103 220.151 174.116 220.16 174.127C220.168 174.139 220.179 174.148 220.192 174.155C220.205 174.161 220.218 174.166 220.233 174.167C220.247 174.168 220.261 174.166 220.275 174.161Z" fill="#263238"/>
  <path d="M165.098 196.215H206.203V170.076V165.22L201.342 170.076H165.098V196.215Z" fill="#4867F5" stroke="#263238" stroke-linecap="round" stroke-linejoin="round"/>
  <path d="M192.545 176.12H202.221" stroke="#263238" stroke-linecap="round" stroke-linejoin="round"/>
  <path d="M179.005 176.12H190.06" stroke="#263238" stroke-linecap="round" stroke-linejoin="round"/>
  <path d="M170.714 176.12H177.068" stroke="#263238" stroke-linecap="round" stroke-linejoin="round"/>
  <path d="M188.123 179.163H202.221" stroke="#263238" stroke-linecap="round" stroke-linejoin="round"/>
  <path d="M170.714 179.163H185.638" stroke="#263238" stroke-linecap="round" stroke-linejoin="round"/>
  <path d="M199.457 182.2H202.221" stroke="#263238" stroke-linecap="round" stroke-linejoin="round"/>
  <path d="M183.98 182.2H197.246" stroke="#263238" stroke-linecap="round" stroke-linejoin="round"/>
  <path d="M170.714 182.2H181.769" stroke="#263238" stroke-linecap="round" stroke-linejoin="round"/>
  <path d="M192.545 184.69H202.221" stroke="#263238" stroke-linecap="round" stroke-linejoin="round"/>
  <path d="M179.005 184.69H190.06" stroke="#263238" stroke-linecap="round" stroke-linejoin="round"/>
  <path d="M170.714 184.69H177.068" stroke="#263238" stroke-linecap="round" stroke-linejoin="round"/>
  <path d="M188.123 187.728H202.221" stroke="#263238" stroke-linecap="round" stroke-linejoin="round"/>
  <path d="M170.714 187.728H185.638" stroke="#263238" stroke-linecap="round" stroke-linejoin="round"/>
  <path d="M199.457 190.765H202.221" stroke="#263238" stroke-linecap="round" stroke-linejoin="round"/>
  <path d="M183.98 190.765H197.246" stroke="#263238" stroke-linecap="round" stroke-linejoin="round"/>
  <path d="M170.714 190.765H181.769" stroke="#263238" stroke-linecap="round" stroke-linejoin="round"/>
  <path d="M226.929 12.1801H205.604C205.381 13.3611 204.752 14.4272 203.827 15.1947C202.902 15.9623 201.739 16.3832 200.537 16.3851H170.006C168.804 16.3832 167.64 15.9623 166.715 15.1947C165.79 14.4272 165.162 13.3611 164.938 12.1801H143.639C141.858 12.1801 140.15 12.8876 138.891 14.147C137.631 15.4064 136.924 17.1146 136.924 18.8957V199.185C136.924 200.966 137.631 202.674 138.891 203.934C140.15 205.193 141.858 205.901 143.639 205.901H226.929C228.71 205.901 230.418 205.193 231.678 203.934C232.937 202.674 233.645 200.966 233.645 199.185V18.8957C233.645 17.1146 232.937 15.4064 231.678 14.147C230.418 12.8876 228.71 12.1801 226.929 12.1801Z" stroke="#414547" stroke-width="2" stroke-linecap="round" stroke-linejoin="round"/>
  <path d="M233.645 24.3457V18.9009C233.645 17.1198 232.937 15.4116 231.678 14.1522C230.418 12.8928 228.71 12.1852 226.929 12.1852H205.604C205.381 13.3662 204.752 14.4323 203.827 15.1999C202.902 15.9674 201.739 16.3884 200.537 16.3902H170.006C168.803 16.3882 167.639 15.9665 166.714 15.1979C165.789 14.4293 165.161 13.362 164.938 12.1801H143.639C141.858 12.1801 140.15 12.8876 138.891 14.147C137.631 15.4064 136.924 17.1146 136.924 18.8957V24.3457H233.645Z" stroke="#414547" stroke-width="2" stroke-linecap="round" stroke-linejoin="round"/>
  <path d="M145.783 17.0463C145.783 18.3687 144.296 18.844 144.29 19.8513V19.9185H145.732V20.3679H143.81V19.9908C143.81 18.596 145.308 18.2964 145.308 17.0463C145.308 16.5917 145.158 16.354 144.792 16.354C144.425 16.354 144.275 16.6123 144.275 16.9998V17.3872H143.82V17.0463C143.82 16.3747 144.125 15.9304 144.802 15.9304C145.479 15.9304 145.783 16.3747 145.783 17.0463Z" fill="#263238"/>
  <path d="M148.18 17.0464V17.1601C148.203 17.3455 148.164 17.5332 148.071 17.6951C147.978 17.857 147.835 17.9846 147.664 18.0589C147.837 18.1337 147.981 18.2629 148.074 18.427C148.168 18.591 148.205 18.781 148.18 18.9681V19.3039C148.18 19.9755 147.865 20.4146 147.194 20.4146C146.522 20.4146 146.207 19.9755 146.207 19.3039V19.0043H146.667V19.3349C146.667 19.7327 146.827 19.9703 147.183 19.9703C147.54 19.9703 147.7 19.7378 147.7 19.2936V18.9578C147.7 18.5239 147.514 18.3172 147.147 18.3017H146.858V17.8678H147.147C147.223 17.8689 147.298 17.8533 147.368 17.822C147.437 17.7907 147.498 17.7446 147.547 17.6869C147.597 17.6292 147.633 17.5613 147.653 17.4881C147.673 17.4149 147.677 17.3382 147.664 17.2634V17.0464C147.664 16.597 147.504 16.3645 147.147 16.3645C146.791 16.3645 146.631 16.6073 146.631 17.0051V17.2324H146.171V17.0464C146.171 16.3749 146.486 15.9409 147.158 15.9409C147.829 15.9409 148.18 16.3697 148.18 17.0464Z" fill="#263238"/>
  <path d="M149.125 17.3718V17.9814H148.655V17.3718H149.125ZM149.125 19.7585V20.368H148.655V19.7585H149.125Z" fill="#263238"/>
  <path d="M150.117 17.7644C150.182 17.6496 150.276 17.555 150.391 17.4911C150.506 17.4272 150.637 17.3966 150.768 17.4028C151.331 17.4028 151.584 17.8161 151.584 18.436V19.2935C151.584 19.9651 151.264 20.4042 150.593 20.4042C149.921 20.4042 149.611 19.9651 149.611 19.2935V18.9991H150.066V19.3245C150.066 19.7223 150.231 19.9599 150.582 19.9599C150.934 19.9599 151.099 19.7223 151.099 19.3245V18.4825C151.099 18.0847 150.939 17.8471 150.582 17.8471C150.517 17.8406 150.451 17.8479 150.388 17.8686C150.326 17.8893 150.268 17.9228 150.219 17.9672C150.171 18.0115 150.132 18.0655 150.105 18.1258C150.079 18.1861 150.065 18.2513 150.066 18.3172V18.4153H149.606L149.725 15.9822H151.455V16.4213H150.164L150.117 17.7644Z" fill="#263238"/>
  <path d="M154.017 17.0462V17.1237H153.573V17.0101C153.573 16.6175 153.408 16.385 153.057 16.385C152.705 16.385 152.54 16.6226 152.54 17.0927V18.0794C152.59 17.9345 152.687 17.8102 152.815 17.7253C152.943 17.6404 153.095 17.5997 153.248 17.6093C153.811 17.6093 154.064 18.0123 154.064 18.6425V19.3037C154.064 19.9753 153.733 20.4144 153.062 20.4144C152.39 20.4144 152.023 19.9701 152.023 19.2986V17.0462C152.023 16.3489 152.333 15.9149 153.031 15.9149C153.728 15.9149 154.017 16.3643 154.017 17.0462ZM152.509 18.6838V19.3399C152.509 19.7377 152.674 19.9753 153.026 19.9753C153.377 19.9753 153.542 19.7377 153.542 19.3399V18.6735C153.542 18.2809 153.372 18.0433 153.026 18.0433C152.68 18.0433 152.509 18.2809 152.509 18.6735V18.6838Z" fill="#263238"/>
  <path d="M208.161 17.2272H206.921V20.3215H208.161V17.2272Z" fill="#263238"/>
  <path d="M209.815 16.6074H208.575V20.3217H209.815V16.6074Z" fill="#263238"/>
  <path d="M211.462 16.1682H210.223V20.3216H211.462V16.1682Z" fill="#263238"/>
  <path d="M213.115 15.3984H211.875V20.3215H213.115V15.3984Z" fill="#263238"/>
  <path d="M228.432 20.2339H221.004V15.6982H228.432V20.2339ZM221.417 19.8258H228.019V16.1115H221.417V19.8258Z" fill="#263238"/>
  <path d="M225.958 16.5609H222.037V19.3763H225.958V16.5609Z" fill="#263238"/>
  <path d="M229.109 17.4338H228.174V18.5032H229.109V17.4338Z" fill="#263238"/>
  <path d="M218.281 19.247C218.232 19.2479 218.184 19.2354 218.142 19.2109C216.628 18.312 215.631 19.1437 215.59 19.1799C215.563 19.2072 215.531 19.2286 215.495 19.2429C215.46 19.2572 215.421 19.264 215.383 19.2629C215.345 19.2618 215.307 19.2527 215.272 19.2364C215.238 19.2201 215.207 19.1968 215.181 19.1679C215.156 19.1391 215.137 19.1053 215.126 19.0688C215.114 19.0323 215.11 18.9937 215.114 18.9556C215.118 18.9174 215.129 18.8805 215.148 18.8471C215.167 18.8137 215.193 18.7845 215.223 18.7614C215.275 18.7149 216.556 17.6198 218.426 18.7304C218.488 18.7698 218.532 18.8316 218.549 18.9029C218.567 18.9741 218.556 19.0493 218.519 19.1127C218.495 19.1539 218.46 19.188 218.418 19.2116C218.376 19.2351 218.329 19.2474 218.281 19.247Z" fill="#263238"/>
  <path d="M218.839 18.3172C218.79 18.3163 218.742 18.302 218.7 18.2759C216.514 16.9792 215.042 18.2345 215.027 18.2449C215 18.2686 214.968 18.2868 214.934 18.2983C214.9 18.3099 214.864 18.3146 214.828 18.3122C214.792 18.3098 214.756 18.3003 214.724 18.2844C214.692 18.2684 214.663 18.2462 214.639 18.219C214.615 18.1919 214.597 18.1604 214.586 18.1262C214.574 18.0921 214.569 18.056 214.572 18.02C214.574 17.984 214.584 17.9488 214.6 17.9165C214.616 17.8842 214.638 17.8553 214.665 17.8316C214.665 17.8316 216.452 16.2818 218.984 17.8006C219.047 17.8391 219.092 17.9009 219.109 17.9726C219.127 18.0442 219.115 18.1198 219.077 18.1829C219.052 18.2238 219.017 18.2576 218.975 18.2811C218.934 18.3046 218.887 18.317 218.839 18.3172Z" fill="#263238"/>
  <path d="M219.35 17.2376C219.299 17.2366 219.25 17.2224 219.206 17.1963C216.437 15.5536 214.598 17.1033 214.52 17.1705C214.464 17.2129 214.394 17.2325 214.324 17.2254C214.254 17.2182 214.189 17.1847 214.142 17.1317C214.096 17.0787 214.071 17.0101 214.073 16.9397C214.075 16.8693 214.104 16.8022 214.154 16.752C214.179 16.752 216.365 14.8613 219.49 16.721C219.521 16.7397 219.549 16.7644 219.571 16.7937C219.593 16.823 219.609 16.8563 219.618 16.8918C219.627 16.9273 219.629 16.9643 219.624 17.0006C219.619 17.0369 219.607 17.0718 219.588 17.1033C219.563 17.1439 219.528 17.1774 219.486 17.2009C219.445 17.2244 219.398 17.237 219.35 17.2376Z" fill="#263238"/>
  <path d="M217.444 19.7121C217.445 19.8505 217.405 19.9861 217.329 20.1015C217.252 20.217 217.144 20.3072 217.016 20.3606C216.888 20.414 216.748 20.4283 216.612 20.4015C216.476 20.3748 216.351 20.3083 216.254 20.2104C216.156 20.1126 216.089 19.9878 216.062 19.8521C216.036 19.7163 216.05 19.5757 216.103 19.448C216.157 19.3204 216.247 19.2115 216.362 19.1353C216.478 19.0591 216.613 19.0189 216.752 19.0199C216.935 19.0199 217.112 19.0928 217.241 19.2227C217.371 19.3525 217.444 19.5286 217.444 19.7121Z" fill="#263238"/>
  <path d="M225.896 214.13H236.744" stroke="#263238" stroke-linecap="round" stroke-linejoin="round"/>
  <path d="M21.3262 214.13H222.279" stroke="#263238" stroke-linecap="round" stroke-linejoin="round"/>
  <path d="M7.19775 214.13H14.6108" stroke="#263238" stroke-linecap="round" stroke-linejoin="round"/>
  <path d="M81.602 144.561H73.7085V213.164H81.602V144.561Z" fill="#263238" stroke="#263238" stroke-linecap="round" stroke-linejoin="round"/>
  <path d="M19.0122 169.404V174.229H50.4724V169.404H19.0122Z" fill="#263238" stroke="#263238" stroke-linecap="round" stroke-linejoin="round"/>
  <path d="M22.2458 152.749H17.4209V172.054H22.2458V152.749Z" fill="#263238" stroke="#263238" stroke-linecap="round" stroke-linejoin="round"/>
  <path d="M24.2557 172.137C24.2557 172.717 24.1412 173.292 23.919 173.828C23.6967 174.365 23.3709 174.852 22.9602 175.262C22.5495 175.672 22.062 175.997 21.5255 176.219C20.989 176.441 20.4141 176.554 19.8337 176.554C19.689 176.554 19.5444 176.554 19.4049 176.554C18.6003 176.474 17.8329 176.176 17.1862 175.69C16.5394 175.205 16.0381 174.552 15.7367 173.802C15.4353 173.051 15.3454 172.233 15.4767 171.435C15.608 170.637 15.9555 169.891 16.4814 169.277C17.0074 168.663 17.6916 168.204 18.4597 167.952C19.2279 167.7 20.0505 167.663 20.8381 167.845C21.6258 168.028 22.3483 168.423 22.9272 168.987C23.506 169.552 23.9191 170.264 24.1213 171.047C24.2096 171.404 24.2546 171.77 24.2557 172.137Z" fill="white" stroke="#263238" stroke-linecap="round" stroke-linejoin="round"/>
  <path d="M24.5811 155.725C24.5784 156.896 24.1114 158.019 23.2826 158.847C22.4538 159.675 21.3306 160.14 20.1591 160.142C20.0145 160.142 19.8698 160.142 19.7252 160.142C18.9202 160.065 18.1517 159.768 17.5035 159.285C16.8552 158.801 16.352 158.149 16.0484 157.4C15.7449 156.65 15.6527 155.832 15.7819 155.033C15.9111 154.235 16.2567 153.487 16.7812 152.872C17.3057 152.256 17.9889 151.796 18.7566 151.542C19.5243 151.288 20.347 151.249 21.1352 151.43C21.9234 151.61 22.647 152.004 23.2273 152.567C23.8075 153.13 24.2222 153.842 24.4261 154.625C24.5253 154.983 24.5774 155.353 24.5811 155.725Z" fill="white" stroke="#263238" stroke-linecap="round" stroke-linejoin="round"/>
  <path d="M32.4989 143.74L26.0674 147.203L27.3997 149.677L33.8312 146.214L32.4989 143.74Z" fill="#263238" stroke="#263238" stroke-linecap="round" stroke-linejoin="round"/>
  <path d="M34.8973 146.483L31.7306 148.188L29.7056 144.432L32.8774 142.722C33.1263 142.586 33.3999 142.501 33.6823 142.471C33.9646 142.442 34.2499 142.47 34.5214 142.553C34.7928 142.636 35.045 142.772 35.2631 142.954C35.4811 143.135 35.6606 143.359 35.791 143.611C36.0502 144.111 36.1017 144.693 35.9344 145.231C35.7671 145.768 35.3944 146.218 34.8973 146.483Z" fill="white" stroke="#263238" stroke-linecap="round" stroke-linejoin="round"/>
  <path d="M21.0168 130.557L20.7895 143.657L17.9844 143.611L18.2065 130.51L21.0168 130.557Z" fill="#263238" stroke="#263238" stroke-linecap="round" stroke-linejoin="round"/>
  <path d="M21.776 129.766L21.7192 133.383L17.4521 133.279L17.509 129.663C17.5137 129.383 17.5735 129.106 17.6851 128.849C17.7967 128.592 17.9579 128.36 18.1593 128.165C18.3608 127.97 18.5987 127.817 18.8594 127.714C19.1201 127.611 19.3985 127.561 19.6786 127.566C19.9617 127.57 20.2412 127.63 20.5006 127.743C20.76 127.857 20.9943 128.021 21.1896 128.226C21.3849 128.43 21.5374 128.672 21.6381 128.937C21.7387 129.201 21.7856 129.483 21.776 129.766Z" fill="white" stroke="#263238" stroke-linecap="round" stroke-linejoin="round"/>
  <path d="M31.5136 135.309L25.3507 146.87L22.8711 145.553L29.0288 133.992L31.5136 135.309Z" fill="#263238" stroke="#263238" stroke-linecap="round" stroke-linejoin="round"/>
  <path d="M32.547 134.953L30.8577 138.13L27.0918 136.131L28.7759 132.948C29.0423 132.45 29.495 132.078 30.035 131.912C30.5751 131.747 31.1587 131.802 31.6584 132.065C32.1588 132.331 32.5333 132.784 32.6999 133.325C32.8665 133.867 32.8115 134.452 32.547 134.953Z" fill="white" stroke="#263238" stroke-linecap="round" stroke-linejoin="round"/>
  <path d="M11.0571 135.258L17.1631 146.85L14.6783 148.162L8.57227 136.57L11.0571 135.258Z" fill="#263238" stroke="#263238" stroke-linecap="round" stroke-linejoin="round"/>
  <path d="M16.7858 143.662C16.6952 143.126 16.4476 142.629 16.0744 142.234C15.7011 141.838 15.2189 141.562 14.6888 141.441C14.1588 141.32 13.6046 141.358 13.0965 141.552C12.5885 141.746 12.1493 142.086 11.8346 142.53C11.5199 142.973 11.3439 143.5 11.3287 144.043C11.3135 144.587 11.46 145.123 11.7495 145.583C12.039 146.043 12.4585 146.408 12.955 146.629C13.4515 146.851 14.0026 146.921 14.5386 146.829C15.2562 146.707 15.8959 146.304 16.3172 145.711C16.7385 145.117 16.907 144.38 16.7858 143.662Z" fill="white" stroke="#263238" stroke-linecap="round" stroke-linejoin="round"/>
  <path d="M19.4719 144.024C20.9897 144.024 22.2201 142.794 22.2201 141.276C22.2201 139.758 20.9897 138.528 19.4719 138.528C17.9541 138.528 16.7236 139.758 16.7236 141.276C16.7236 142.794 17.9541 144.024 19.4719 144.024Z" fill="white" stroke="#263238" stroke-linecap="round" stroke-linejoin="round"/>
  <path d="M28.4401 142.862C28.5228 142.324 28.4443 141.774 28.2144 141.282C27.9845 140.789 27.6136 140.375 27.1487 140.094C26.6838 139.812 26.1457 139.674 25.6025 139.698C25.0593 139.722 24.5354 139.907 24.0972 140.228C23.6589 140.55 23.326 140.995 23.1405 141.506C22.955 142.017 22.9252 142.572 23.055 143.1C23.1848 143.628 23.4683 144.105 23.8696 144.472C24.271 144.839 24.7721 145.078 25.3096 145.16C25.6661 145.215 26.03 145.2 26.3805 145.114C26.7309 145.028 27.061 144.874 27.3517 144.66C27.6425 144.447 27.8884 144.178 28.0751 143.869C28.2619 143.561 28.3859 143.218 28.4401 142.862Z" fill="white" stroke="#263238" stroke-linecap="round" stroke-linejoin="round"/>
  <path d="M11.3409 134.199L13.025 137.381L9.25386 139.38L7.56978 136.193C7.43824 135.945 7.35687 135.674 7.33035 135.395C7.30383 135.116 7.33268 134.835 7.41523 134.567C7.49779 134.299 7.63244 134.05 7.81144 133.834C7.99044 133.619 8.21027 133.441 8.45832 133.31C8.95869 133.047 9.54278 132.993 10.0829 133.16C10.6231 133.326 11.0753 133.7 11.3409 134.199Z" fill="white" stroke="#263238" stroke-linecap="round" stroke-linejoin="round"/>
  <path d="M27.913 148.968C27.913 151.023 27.0967 152.994 25.6435 154.447C24.1903 155.9 22.2193 156.717 20.1642 156.717C19.9059 156.717 19.6476 156.717 19.4048 156.686C17.9953 156.546 16.651 156.022 15.518 155.172C14.3851 154.322 13.5069 153.177 12.9789 151.863C12.4509 150.549 12.2933 149.115 12.5231 147.717C12.753 146.319 13.3616 145.011 14.2828 143.935C15.2039 142.859 16.4024 142.056 17.748 141.614C19.0935 141.171 20.5347 141.106 21.9148 141.425C23.2948 141.744 24.561 142.435 25.5758 143.424C26.5905 144.412 27.3149 145.659 27.6703 147.031C27.8305 147.664 27.912 148.314 27.913 148.968Z" fill="white" stroke="#263238" stroke-linecap="round" stroke-linejoin="round"/>
  <path d="M27.9133 148.968C27.9133 151.023 27.0969 152.994 25.6437 154.447C24.1906 155.9 22.2196 156.717 20.1645 156.717C19.9062 156.717 19.6479 156.717 19.4051 156.686C19.1082 155.539 19.0781 154.34 19.3171 153.18C19.556 152.02 20.0577 150.93 20.7835 149.994C21.5093 149.059 22.44 148.302 23.504 147.781C24.5681 147.261 25.7372 146.992 26.9215 146.995C27.1746 146.995 27.4381 146.995 27.6809 147.031C27.8376 147.664 27.9157 148.315 27.9133 148.968Z" fill="white" stroke="#263238" stroke-linecap="round" stroke-linejoin="round"/>
  <path d="M66.9313 172.277C68.2469 166.654 64.7554 161.029 59.1327 159.714C53.5101 158.398 47.8854 161.889 46.5697 167.512C45.2541 173.135 48.7456 178.759 54.3682 180.075C59.9909 181.391 65.6156 177.899 66.9313 172.277Z" fill="white" stroke="#263238" stroke-linecap="round" stroke-linejoin="round"/>
  <path d="M58.693 174.57C61.2762 173.493 62.4969 170.525 61.4195 167.942C60.3421 165.359 57.3746 164.138 54.7915 165.215C52.2083 166.293 50.9876 169.26 52.065 171.843C53.1424 174.427 56.1099 175.647 58.693 174.57Z" fill="#263238" stroke="#263238" stroke-linecap="round" stroke-linejoin="round"/>
  <path d="M54.9512 214.131H101.341L102.007 210.99C102.274 209.735 102.034 208.426 101.339 207.347C100.644 206.269 99.5511 205.51 98.2981 205.235C91.722 203.757 77.4848 203.225 77.4848 203.225C74.0546 203.334 64.5081 203.742 57.9319 205.24C56.6876 205.524 55.6052 206.287 54.9188 207.363C54.2324 208.439 53.9972 209.742 54.2641 210.99L54.9512 214.131Z" fill="white" stroke="#263238" stroke-linecap="round" stroke-linejoin="round"/>
  <path d="M89.3094 203.99C83.3686 203.442 77.5002 203.225 77.5002 203.225C75.3408 203.292 70.7535 203.484 66.0112 203.99C67.3957 208.717 72.0863 212.198 77.6603 212.198C83.2343 212.198 87.9249 208.701 89.3094 203.99Z" fill="#92E3A9" stroke="#263238" stroke-linecap="round" stroke-linejoin="round"/>
  <path d="M126.113 191.98L128.999 188.113L103.784 169.298L100.899 173.165L126.113 191.98Z" fill="#263238" stroke="#263238" stroke-linecap="round" stroke-linejoin="round"/>
  <path d="M113.566 203.395L117.433 206.281L128.978 190.809L125.111 187.923L113.566 203.395Z" fill="#263238" stroke="#263238" stroke-linecap="round" stroke-linejoin="round"/>
  <path d="M123.544 186.653C123.892 186.187 124.328 185.793 124.828 185.496C125.328 185.198 125.881 185.002 126.457 184.919C127.033 184.835 127.619 184.866 128.183 185.009C128.747 185.153 129.277 185.406 129.743 185.754L130.079 186.028C130.676 186.573 131.113 187.271 131.341 188.047C131.569 188.823 131.58 189.646 131.373 190.428C131.166 191.209 130.748 191.919 130.166 192.48C129.583 193.041 128.858 193.432 128.069 193.609C127.28 193.787 126.458 193.744 125.691 193.487C124.925 193.23 124.243 192.767 123.721 192.149C123.199 191.532 122.857 190.783 122.731 189.984C122.605 189.185 122.7 188.367 123.007 187.619C123.145 187.276 123.326 186.952 123.544 186.653Z" fill="white" stroke="#263238" stroke-linecap="round" stroke-linejoin="round"/>
  <path d="M113.455 199.015C114.11 198.042 115.124 197.37 116.275 197.145C117.426 196.92 118.619 197.162 119.592 197.816C119.711 197.894 119.824 197.982 119.938 198.07C120.562 198.584 121.032 199.26 121.299 200.024C121.565 200.788 121.617 201.61 121.448 202.401C121.28 203.192 120.898 203.921 120.344 204.51C119.789 205.099 119.084 205.525 118.305 205.741C117.526 205.957 116.702 205.956 115.924 205.736C115.145 205.517 114.442 205.088 113.89 204.497C113.338 203.906 112.959 203.174 112.794 202.383C112.629 201.591 112.684 200.769 112.954 200.007C113.079 199.657 113.247 199.323 113.455 199.015Z" fill="white" stroke="#263238" stroke-linecap="round" stroke-linejoin="round"/>
  <path d="M100.177 204.549L107.446 205.263L107.721 202.467L100.451 201.752L100.177 204.549Z" fill="#263238" stroke="#263238" stroke-linecap="round" stroke-linejoin="round"/>
  <path d="M99.7342 200.952L103.319 201.303L102.901 205.55L99.3157 205.199C98.7526 205.144 98.2344 204.867 97.875 204.43C97.5156 203.994 97.3444 203.432 97.3992 202.869C97.4553 202.305 97.7327 201.787 98.1704 201.428C98.6082 201.068 99.1705 200.897 99.7342 200.952Z" fill="white" stroke="#263238" stroke-linecap="round" stroke-linejoin="round"/>
  <path d="M106.915 202.76C107.483 201.914 108.212 201.188 109.061 200.624C109.909 200.06 110.861 199.669 111.861 199.474C112.861 199.278 113.89 199.281 114.888 199.484C115.887 199.686 116.836 200.083 117.681 200.653C117.893 200.797 118.094 200.947 118.29 201.107C119.383 202.01 120.206 203.195 120.672 204.533C121.138 205.871 121.228 207.311 120.933 208.697C120.637 210.082 119.967 211.36 118.996 212.392C118.025 213.424 116.79 214.169 115.424 214.548C114.059 214.926 112.616 214.923 111.252 214.539C109.889 214.154 108.656 213.404 107.69 212.368C106.723 211.332 106.059 210.051 105.769 208.664C105.479 207.277 105.576 205.837 106.047 204.501C106.261 203.886 106.553 203.301 106.915 202.76Z" fill="white" stroke="#263238" stroke-linecap="round" stroke-linejoin="round"/>
  <path d="M98.5669 210.809L108.175 203.623L109.72 205.684L100.111 212.865L98.5669 210.809Z" fill="#263238" stroke="#263238" stroke-linecap="round" stroke-linejoin="round"/>
  <path d="M97.5697 210.7L100.209 208.701L102.555 211.8L99.915 213.779C99.5005 214.089 98.9798 214.222 98.4673 214.148C97.9549 214.075 97.4927 213.801 97.1822 213.386C96.8847 212.976 96.7586 212.466 96.831 211.965C96.9033 211.463 97.1683 211.009 97.5697 210.7Z" fill="white" stroke="#263238" stroke-linecap="round" stroke-linejoin="round"/>
  <path d="M110.975 205.839C111.097 205.309 111.059 204.754 110.865 204.245C110.672 203.736 110.331 203.296 109.887 202.981C109.443 202.666 108.916 202.49 108.372 202.476C107.827 202.461 107.291 202.608 106.831 202.899C106.37 203.189 106.006 203.61 105.785 204.107C105.564 204.605 105.496 205.157 105.589 205.693C105.683 206.229 105.933 206.726 106.309 207.12C106.684 207.514 107.169 207.787 107.7 207.906C108.408 208.063 109.15 207.934 109.764 207.547C110.377 207.16 110.813 206.546 110.975 205.839Z" fill="white" stroke="#263238" stroke-linecap="round" stroke-linejoin="round"/>
  <path d="M116.069 218.031L117.495 208.174L119.607 208.474L118.187 218.33L116.069 218.031Z" fill="#263238" stroke="#263238" stroke-linecap="round" stroke-linejoin="round"/>
  <path d="M115.423 218.552L115.81 215.84L119.018 216.3L118.631 219.007C118.601 219.218 118.53 219.421 118.422 219.605C118.313 219.788 118.17 219.949 118 220.077C117.829 220.205 117.636 220.298 117.429 220.351C117.223 220.404 117.008 220.416 116.797 220.386C116.372 220.325 115.988 220.097 115.731 219.754C115.473 219.41 115.362 218.978 115.423 218.552Z" fill="white" stroke="#263238" stroke-linecap="round" stroke-linejoin="round"/>
  <path d="M120.434 207.828C120.191 207.449 119.841 207.151 119.428 206.97C119.016 206.79 118.559 206.737 118.115 206.816C117.672 206.895 117.262 207.104 116.938 207.416C116.613 207.728 116.388 208.13 116.292 208.57C116.195 209.009 116.231 209.468 116.395 209.887C116.559 210.307 116.843 210.668 117.213 210.926C117.582 211.184 118.019 211.327 118.469 211.336C118.919 211.346 119.362 211.221 119.742 210.979C120.251 210.653 120.61 210.138 120.74 209.547C120.87 208.956 120.76 208.338 120.434 207.828Z" fill="white" stroke="#263238" stroke-linecap="round" stroke-linejoin="round"/>
  <path d="M106.559 216.719L112.964 206.573L115.139 207.937L108.739 218.088L106.559 216.719Z" fill="#263238" stroke="#263238" stroke-linecap="round" stroke-linejoin="round"/>
  <path d="M105.592 216.966L107.344 214.177L110.655 216.243L108.899 219.038C108.622 219.475 108.184 219.785 107.68 219.9C107.175 220.016 106.646 219.926 106.207 219.653C105.77 219.377 105.46 218.94 105.345 218.436C105.23 217.933 105.319 217.404 105.592 216.966Z" fill="white" stroke="#263238" stroke-linecap="round" stroke-linejoin="round"/>
  <path d="M116.379 207.637C116.302 207.099 116.067 206.596 115.704 206.191C115.342 205.787 114.867 205.5 114.34 205.365C113.814 205.231 113.259 205.257 112.747 205.438C112.235 205.62 111.788 205.949 111.463 206.385C111.139 206.821 110.951 207.343 110.923 207.886C110.896 208.428 111.031 208.967 111.31 209.433C111.589 209.899 112 210.272 112.492 210.504C112.983 210.736 113.532 210.817 114.07 210.736C114.786 210.63 115.432 210.245 115.864 209.664C116.297 209.083 116.482 208.354 116.379 207.637Z" fill="white" stroke="#263238" stroke-linecap="round" stroke-linejoin="round"/>
  <path d="M104.512 178.867C109.367 175.742 110.77 169.272 107.644 164.416C104.519 159.561 98.0486 158.158 93.1931 161.284C88.3376 164.41 86.9351 170.88 90.0607 175.735C93.1863 180.591 99.6563 181.993 104.512 178.867Z" fill="white" stroke="#263238" stroke-linecap="round" stroke-linejoin="round"/>
  <path d="M103.463 172.192C104.63 169.648 103.514 166.64 100.97 165.473C98.4256 164.306 95.4174 165.423 94.2505 167.967C93.0836 170.511 94.2 173.519 96.744 174.686C99.288 175.853 102.296 174.736 103.463 172.192Z" fill="#263238" stroke="#263238" stroke-linecap="round" stroke-linejoin="round"/>
  <path d="M77.6551 149.355C86.9304 149.355 94.4494 141.836 94.4494 132.561C94.4494 123.286 86.9304 115.767 77.6551 115.767C68.3799 115.767 60.8608 123.286 60.8608 132.561C60.8608 141.836 68.3799 149.355 77.6551 149.355Z" fill="#92E3A9" stroke="#263238" stroke-linecap="round" stroke-linejoin="round"/>
  <path d="M101.667 143.745C105.273 139.223 107.53 133.775 108.178 128.028C108.826 122.28 107.839 116.466 105.33 111.255C102.82 106.043 98.8908 101.646 93.9933 98.5685C89.0959 95.4911 83.4292 93.8585 77.6452 93.8585C71.8611 93.8585 66.1944 95.4911 61.297 98.5685C56.3995 101.646 52.4702 106.043 49.9608 111.255C47.4514 116.466 46.4639 122.28 47.1119 128.028C47.7599 133.775 50.0171 139.223 53.6238 143.745H101.667Z" fill="white" stroke="#263238" stroke-linecap="round" stroke-linejoin="round"/>
  <path d="M96.4489 112.988H58.087C55.7532 112.988 53.8613 114.879 53.8613 117.213V130.81C53.8613 133.144 55.7532 135.036 58.087 135.036H96.4489C98.7827 135.036 100.675 133.144 100.675 130.81V117.213C100.675 114.879 98.7827 112.988 96.4489 112.988Z" fill="#4867F5" stroke="#263238" stroke-linecap="round" stroke-linejoin="round"/>
  <path d="M58.9238 123.118C59.4312 121.697 60.3558 120.463 61.5766 119.577C62.7974 118.691 64.2574 118.195 65.7652 118.153C67.2731 118.111 68.7583 118.526 70.0265 119.343C71.2946 120.159 72.2863 121.34 72.8717 122.73" stroke="#263238" stroke-width="5" stroke-linecap="round" stroke-linejoin="round"/>
  <path d="M82.062 123.118C82.5694 121.697 83.494 120.463 84.7148 119.577C85.9356 118.691 87.3956 118.195 88.9034 118.153C90.4112 118.111 91.8965 118.526 93.1646 119.343C94.4327 120.159 95.4245 121.34 96.0099 122.73" stroke="#263238" stroke-width="5" stroke-linecap="round" stroke-linejoin="round"/>
  <path d="M73.6055 128.227C73.7351 129.251 74.2341 130.193 75.0087 130.876C75.7834 131.559 76.7805 131.935 77.8131 131.935C78.8457 131.935 79.8428 131.559 80.6174 130.876C81.3921 130.193 81.891 129.251 82.0207 128.227H73.6055Z" fill="white" stroke="#263238" stroke-linecap="round" stroke-linejoin="round"/>
  <path d="M117.412 129.973C116.56 129.973 115.742 129.634 115.14 129.032C114.537 128.429 114.199 127.612 114.199 126.76V119.45C114.198 119.028 114.281 118.609 114.442 118.219C114.603 117.828 114.84 117.473 115.138 117.175C115.436 116.876 115.791 116.638 116.181 116.477C116.571 116.315 116.99 116.232 117.412 116.232C117.834 116.231 118.253 116.313 118.643 116.475C119.034 116.636 119.388 116.872 119.687 117.171C119.986 117.469 120.223 117.824 120.385 118.214C120.547 118.604 120.63 119.022 120.63 119.445V126.754C120.631 127.177 120.548 127.596 120.387 127.987C120.225 128.378 119.988 128.733 119.689 129.032C119.39 129.331 119.035 129.568 118.644 129.729C118.254 129.891 117.835 129.974 117.412 129.973Z" fill="#263238" stroke="#263238" stroke-linecap="round" stroke-linejoin="round"/>
  <path d="M37.0206 129.973C36.5982 129.974 36.1798 129.891 35.7894 129.73C35.3989 129.569 35.0441 129.332 34.7452 129.034C34.4463 128.735 34.2091 128.381 34.0473 127.99C33.8855 127.6 33.8022 127.182 33.8023 126.76V119.45C33.8016 119.027 33.8844 118.608 34.0458 118.218C34.2073 117.827 34.4444 117.472 34.7434 117.173C35.0424 116.874 35.3974 116.637 35.7882 116.475C36.179 116.314 36.5978 116.231 37.0206 116.232C37.4426 116.232 37.8604 116.315 38.2502 116.476C38.6401 116.638 38.9943 116.874 39.2927 117.173C39.591 117.471 39.8277 117.825 39.9892 118.215C40.1507 118.605 40.2338 119.023 40.2338 119.445V126.754C40.2345 127.177 40.1518 127.595 39.9907 127.986C39.8295 128.376 39.5929 128.731 39.2945 129.03C38.996 129.329 38.6416 129.566 38.2514 129.728C37.8612 129.89 37.443 129.973 37.0206 129.973Z" fill="#263238" stroke="#263238" stroke-linecap="round" stroke-linejoin="round"/>
  <path d="M47.3214 96.9886C44.4792 101.188 42.9638 106.145 42.9717 111.215V116.526" stroke="#263238" stroke-width="14" stroke-linecap="round" stroke-linejoin="round"/>
  <path d="M108.32 97.0094C105.994 93.5441 102.851 90.7045 99.168 88.7414C95.485 86.7783 91.3754 85.7519 87.2019 85.7529H68.4239C64.2562 85.75 60.1517 86.7719 56.4718 88.7285C52.7919 90.6851 49.6495 93.5164 47.3213 96.9732" stroke="#263238" stroke-width="7" stroke-linecap="round" stroke-linejoin="round"/>
  <path d="M112.649 116.526V111.216C112.657 106.154 111.15 101.206 108.32 97.0094" stroke="#263238" stroke-width="14" stroke-linecap="round" stroke-linejoin="round"/>
  <path d="M45.5338 110.807H41.2254C38.7319 110.807 36.7104 112.829 36.7104 115.322V130.247C36.7104 132.74 38.7319 134.762 41.2254 134.762H45.5338C48.0273 134.762 50.0488 132.74 50.0488 130.247V115.322C50.0488 112.829 48.0273 110.807 45.5338 110.807Z" fill="white" stroke="#263238" stroke-linecap="round" stroke-linejoin="round"/>
  <path d="M44.0618 110.807H42.7031V134.762H44.0618V110.807Z" fill="#4867F5" stroke="#263238" stroke-linecap="round" stroke-linejoin="round"/>
  <path d="M113.579 110.807H109.271C106.777 110.807 104.756 112.829 104.756 115.322V130.247C104.756 132.74 106.777 134.762 109.271 134.762H113.579C116.073 134.762 118.094 132.74 118.094 130.247V115.322C118.094 112.829 116.073 110.807 113.579 110.807Z" fill="white" stroke="#263238" stroke-linecap="round" stroke-linejoin="round"/>
  <path d="M112.107 110.807H110.748V134.762H112.107V110.807Z" fill="#4867F5" stroke="#263238" stroke-linecap="round" stroke-linejoin="round"/>
  <path d="M77.7637 108.633C80.117 108.633 82.4329 108.044 84.5002 106.92C86.5675 105.796 88.3204 104.172 89.5988 102.196L92.5123 97.6861C87.8955 95.1364 82.6999 93.8185 77.4259 93.8592C72.152 93.8999 66.9773 95.2979 62.4004 97.9186L66.7862 103.363C68.1056 105.007 69.7767 106.333 71.6765 107.245C73.5763 108.157 75.6564 108.631 77.7637 108.633Z" fill="#4867F5" stroke="#263238" stroke-linecap="round" stroke-linejoin="round"/>
  <path d="M78.4922 137.267C78.4922 137.165 78.4619 137.065 78.4051 136.98C78.3483 136.895 78.2677 136.829 78.1733 136.79C78.0789 136.751 77.975 136.741 77.8748 136.761C77.7746 136.78 77.6825 136.83 77.6103 136.902C77.538 136.974 77.4888 137.066 77.4689 137.166C77.449 137.267 77.4592 137.37 77.4983 137.465C77.5374 137.559 77.6036 137.64 77.6886 137.697C77.7735 137.753 77.8734 137.784 77.9756 137.784C78.1126 137.784 78.244 137.729 78.3409 137.632C78.4377 137.536 78.4922 137.404 78.4922 137.267Z" fill="#263238"/>
  <path d="M78.4922 139.003C78.4922 138.901 78.4619 138.801 78.4051 138.716C78.3483 138.631 78.2677 138.565 78.1733 138.526C78.0789 138.487 77.975 138.476 77.8748 138.496C77.7746 138.516 77.6825 138.565 77.6103 138.638C77.538 138.71 77.4888 138.802 77.4689 138.902C77.449 139.002 77.4592 139.106 77.4983 139.201C77.5374 139.295 77.6036 139.376 77.6886 139.432C77.7735 139.489 77.8734 139.519 77.9756 139.519C78.1126 139.519 78.244 139.465 78.3409 139.368C78.4377 139.271 78.4922 139.14 78.4922 139.003Z" fill="#263238"/>
  <path d="M76.5238 138.734C76.6181 138.673 76.69 138.583 76.7287 138.478C76.7673 138.372 76.7705 138.257 76.7378 138.15C76.7051 138.042 76.6383 137.949 76.5475 137.883C76.4566 137.816 76.3467 137.782 76.2345 137.784C76.1401 137.845 76.0682 137.935 76.0296 138.04C75.9909 138.146 75.9877 138.261 76.0204 138.368C76.0531 138.476 76.1199 138.569 76.2108 138.636C76.3016 138.702 76.4115 138.736 76.5238 138.734Z" fill="#263238"/>
  <path d="M79.6288 138.734C79.7087 138.733 79.7872 138.713 79.8581 138.676C79.929 138.639 79.9904 138.586 80.0374 138.522C80.0845 138.457 80.1158 138.382 80.1291 138.303C80.1424 138.225 80.1372 138.144 80.1139 138.067C80.0906 137.991 80.0499 137.921 79.995 137.863C79.94 137.805 79.8724 137.76 79.7973 137.733C79.7223 137.705 79.6418 137.695 79.5624 137.704C79.483 137.713 79.4067 137.74 79.3395 137.784C79.2596 137.785 79.1811 137.805 79.1102 137.842C79.0393 137.879 78.9779 137.932 78.9309 137.996C78.8838 138.061 78.8525 138.136 78.8392 138.215C78.8259 138.293 78.8311 138.374 78.8544 138.451C78.8777 138.527 78.9184 138.597 78.9733 138.655C79.0283 138.713 79.0959 138.758 79.171 138.785C79.246 138.813 79.3264 138.823 79.4059 138.814C79.4853 138.805 79.5616 138.778 79.6288 138.734Z" fill="#263238"/>
  <path d="M98.2981 156.65C91.7219 155.167 77.4848 154.635 77.4848 154.635C74.0546 154.743 64.5081 155.151 57.9319 156.655C56.6869 156.938 55.6036 157.7 54.917 158.776C54.2304 159.853 53.9958 161.156 54.2641 162.404L60.3547 190.899C60.6539 192.281 61.4164 193.519 62.5157 194.408C63.615 195.297 64.9851 195.783 66.3988 195.786H89.8777C91.2914 195.783 92.6615 195.297 93.7608 194.408C94.8601 193.519 95.6226 192.281 95.9218 190.899L102.007 162.404C102.274 161.15 102.034 159.84 101.339 158.762C100.644 157.684 99.5511 156.924 98.2981 156.65Z" fill="white" stroke="#263238" stroke-linecap="round" stroke-linejoin="round"/>
  <path d="M95.3021 156.102C88.168 155.038 77.5005 154.635 77.5005 154.635C72.2773 154.784 67.0659 155.216 61.8892 155.926L68.7908 195.786H87.5481L95.3021 156.102Z" fill="#4867F5" stroke="#263238" stroke-linecap="round" stroke-linejoin="round"/>
  <path d="M83.658 163.298H72.2311C69.8973 163.298 68.0054 165.19 68.0054 167.524V173.103C68.0054 175.436 69.8973 177.328 72.2311 177.328H83.658C85.9918 177.328 87.8837 175.436 87.8837 173.103V167.524C87.8837 165.19 85.9918 163.298 83.658 163.298Z" fill="white" stroke="#263238" stroke-linecap="round" stroke-linejoin="round"/>
  <path d="M74.6075 169.079H71.3892V172.297H74.6075V169.079Z" fill="white" stroke="#263238" stroke-linecap="round" stroke-linejoin="round"/>
  <path d="M79.5514 169.079H76.333V172.297H79.5514V169.079Z" fill="white" stroke="#263238" stroke-linecap="round" stroke-linejoin="round"/>
  <path d="M84.5001 169.079H81.2817V172.297H84.5001V169.079Z" fill="white" stroke="#263238" stroke-linecap="round" stroke-linejoin="round"/>
  <path d="M32.7226 186.777H89.9813C90.6663 186.777 91.3233 187.049 91.8077 187.534C92.2921 188.018 92.5642 188.675 92.5642 189.36V221.528H30.1396V189.36C30.1396 188.675 30.4118 188.018 30.8962 187.534C31.3806 187.049 32.0376 186.777 32.7226 186.777Z" fill="white" stroke="#263238" stroke-linecap="round" stroke-linejoin="round"/>
  <path d="M92.5642 198.338C84.7224 200.327 76.6739 205.39 61.6774 212.519C47.2129 219.4 35.3727 219.281 30.1396 218.749V221.528H92.5642V198.338Z" fill="#263238" stroke="#263238" stroke-linecap="round" stroke-linejoin="round"/>
  <path d="M92.5642 219.601H30.1396V221.533H92.5642V219.601Z" fill="white" stroke="#263238" stroke-linecap="round" stroke-linejoin="round"/>
  <path d="M64.57 204.155C64.57 204.792 64.3812 205.414 64.0276 205.943C63.674 206.472 63.1713 206.885 62.5833 207.128C61.9952 207.372 61.3481 207.436 60.7238 207.312C60.0995 207.187 59.526 206.881 59.0759 206.431C58.6258 205.981 58.3193 205.407 58.1951 204.783C58.071 204.159 58.1347 203.511 58.3783 202.923C58.6219 202.335 59.0344 201.833 59.5636 201.479C60.0929 201.125 60.7151 200.937 61.3516 200.937C62.2052 200.937 63.0238 201.276 63.6274 201.879C64.2309 202.483 64.57 203.301 64.57 204.155Z" fill="white" stroke="#263238" stroke-linecap="round" stroke-linejoin="round"/>
</svg>