<svg width="61" height="61" viewBox="0 0 61 61" fill="none" xmlns="http://www.w3.org/2000/svg">
<rect width="61" height="61" rx="16" fill="#303030"/>
<path d="M30.5 14C26.1239 14 21.9271 15.7384 18.8327 18.8327C15.7384 21.9271 14 26.1239 14 30.5C14 34.8761 15.7384 39.0729 18.8327 42.1673C21.9271 45.2616 26.1239 47 30.5 47L30.5 30.5V14Z" fill="#D2FF3A"/>
<path d="M30.5 47C34.8761 47 39.0729 45.2616 42.1673 42.1673C45.2616 39.0729 47 34.8761 47 30.5C47 26.1239 45.2616 21.9271 42.1673 18.8327C39.0729 15.7384 34.8761 14 30.5 14L30.5 30.5L30.5 47Z" fill="#606060"/>
</svg>
