<svg xmlns="http://www.w3.org/2000/svg" width="24" height="25" viewBox="0 0 24 25" fill="none">
  <path d="M10.9113 3.70598C11.254 2.65136 12.746 2.65136 13.0887 3.70598L14.4372 7.85624C14.5904 8.32788 15.0299 8.6472 15.5258 8.6472H19.8897C20.9986 8.6472 21.4596 10.0662 20.5625 10.718L17.0321 13.283C16.6309 13.5745 16.463 14.0911 16.6163 14.5628L17.9648 18.713C18.3074 19.7677 17.1004 20.6446 16.2033 19.9928L12.6728 17.4278C12.2716 17.1364 11.7284 17.1364 11.3272 17.4278L7.79674 19.9928C6.89963 20.6446 5.69258 19.7677 6.03524 18.713L7.38375 14.5628C7.53699 14.0911 7.36911 13.5745 6.96791 13.283L3.43749 10.718C2.54038 10.0662 3.00143 8.6472 4.11032 8.6472H8.47416C8.97007 8.6472 9.40959 8.32788 9.56283 7.85624L10.9113 3.70598Z" fill="#F7871B"/>
</svg>