<svg width="26" height="17" viewBox="0 0 26 17" fill="none" xmlns="http://www.w3.org/2000/svg">
<rect y="0.753418" width="26" height="16" fill="#848895"/>
<path d="M19.9119 5.00493C19.3914 5.23594 18.8391 5.38731 18.2736 5.45395C18.8695 5.09771 19.3153 4.53672 19.5278 3.87576C18.9679 4.20821 18.3553 4.44244 17.7165 4.56833C17.4497 4.28358 17.1272 4.05668 16.769 3.90171C16.4109 3.74675 16.0248 3.66702 15.6345 3.66748C14.0594 3.66748 12.7824 4.94454 12.7824 6.5199C12.7824 6.74314 12.8075 6.96073 12.8563 7.16985C10.4857 7.05076 8.38369 5.91538 6.97681 4.18959C6.72306 4.62492 6.5898 5.11996 6.59073 5.62384C6.59073 6.61331 7.09421 7.48651 7.8596 7.99789C7.40664 7.98352 6.96367 7.86112 6.56759 7.64088L6.56731 7.67701C6.56731 9.05877 7.55057 10.2114 8.85556 10.4738C8.43536 10.5876 7.99478 10.6042 7.56722 10.5224C7.93044 11.6555 8.98369 12.4804 10.2317 12.5033C9.22137 13.2964 7.97363 13.7265 6.68923 13.7245C6.45922 13.7245 6.23203 13.7109 6.00879 13.6844C7.31295 14.5226 8.83093 14.9675 10.3813 14.966C15.628 14.966 18.4968 10.6197 18.4968 6.85038C18.4968 6.72677 18.4943 6.60344 18.4889 6.48095C19.0474 6.07772 19.5294 5.57784 19.9119 5.00493Z" fill="black"/>
</svg>
