<svg width="26" height="17" viewBox="0 0 26 17" fill="none" xmlns="http://www.w3.org/2000/svg">
<rect y="0.753418" width="26" height="16" fill="#848895"/>
<path d="M20.5335 5.62025C20.5335 5.48691 20.3335 4.42025 19.8668 3.95358C19.2668 3.28691 18.6002 3.22025 18.2668 3.22025H18.2002C16.1335 3.08691 13.0668 3.08691 13.0002 3.08691C13.0002 3.08691 9.86683 3.08691 7.80016 3.22025H7.7335C7.40016 3.22025 6.7335 3.28691 6.1335 3.95358C5.66683 4.48691 5.46683 5.55358 5.46683 5.68691C5.46683 5.75358 5.3335 6.95358 5.3335 8.22025V9.35358C5.3335 10.6202 5.46683 11.8202 5.46683 11.8869C5.46683 12.0202 5.66683 13.0869 6.1335 13.5536C6.66683 14.1536 7.3335 14.2202 7.7335 14.2869H7.9335C9.1335 14.4202 12.8002 14.4202 12.9335 14.4202C12.9335 14.4202 16.0668 14.4202 18.1335 14.2869H18.2002C18.5335 14.2202 19.2002 14.1536 19.8002 13.5536C20.2668 13.0202 20.4668 11.9536 20.4668 11.8202C20.4668 11.7536 20.6002 10.5536 20.6002 9.28691V8.15358C20.6668 6.95358 20.5335 5.68691 20.5335 5.62025ZM15.6002 8.88691L11.6002 11.0202C11.5335 11.0202 11.5335 11.0869 11.4668 11.0869C11.4002 11.0869 11.3335 11.0869 11.3335 11.0202C11.2668 10.9536 11.2002 10.8869 11.2002 10.7536V6.42025C11.2002 6.28691 11.2668 6.22025 11.3335 6.15358C11.4002 6.08691 11.5335 6.08691 11.6668 6.15358L15.6668 8.28691C15.8002 8.35358 15.8668 8.42025 15.8668 8.55358C15.8668 8.68691 15.7335 8.82025 15.6002 8.88691Z" fill="black"/>
</svg>
