<svg xmlns="http://www.w3.org/2000/svg" width="82" height="57" viewBox="0 0 82 57" fill="none">
  <path d="M31.4015 23.4446C29.1391 22.0889 27.4892 21.1012 24.3969 19.2461C24.1757 19.114 23.94 19.0371 23.6808 19.0665C23.0514 19.1376 22.6429 19.6003 22.6427 20.2404C22.6422 22.9934 22.6427 25.7461 22.6427 28.4984C22.6427 29.383 22.6427 30.2673 22.6427 31.1516C22.6427 33.0201 22.6438 34.8885 22.6416 36.7571C22.6414 37.1261 22.7661 37.4355 23.0501 37.6729C23.4511 38.0079 23.9312 38.0262 24.4248 37.7307C28.1942 35.4727 31.9633 33.2146 35.7324 30.9569C36.5518 30.4658 37.3713 29.9759 38.1895 29.4831C38.5508 29.2658 38.7524 28.9476 38.7605 28.5229C38.7692 28.0619 38.5521 27.7282 38.1617 27.4937C35.9075 26.1449 33.655 24.7945 31.4015 23.4446Z" fill="#B9FF66"/>
  <path d="M60.7737 38.8455C60.7737 38.8455 52.7535 37.5779 46.3127 46.5531C41.7889 52.8617 33.5441 57 26.6822 57C10.5882 57 0.463948 44.4975 0.0827028 30.5082L0.0796017 30.5087C-0.469604 25.571 2.00301 18.4962 2.00301 18.4962C2.9404 15.7275 4.97676 11.282 9.17266 7.28677C22.9092 -7.05125 43.5778 3.20984 48.1092 8.9766C60.8821 25.2305 79.4576 16.1514 79.4576 16.1514C62.4379 31.6148 50.7401 26.4337 44.1029 21.4007C44.091 21.3927 44.083 21.3846 44.0709 21.3764C43.9908 21.3164 43.9104 21.2561 43.8344 21.1964C43.8262 21.192 43.8223 21.188 43.8183 21.1843C42.6111 20.2177 40.9308 18.3451 40.5017 17.8637C40.4375 17.7876 40.4014 17.7473 40.4014 17.7473C37.3777 14.1463 32.838 11.8604 27.7651 11.8604C18.6497 11.8604 11.2587 19.2512 11.2587 28.371C11.2587 37.4901 18.6497 44.881 27.7651 44.881C31.7594 44.881 35.4249 43.4612 38.28 41.0996C38.28 41.0996 38.2881 41.0955 38.3001 41.0833C38.3924 41.0155 38.8215 40.6904 39.3665 40.2892C39.9163 39.8882 40.5819 39.407 41.1355 39.0299C41.1355 39.0261 41.1393 39.0261 41.1393 39.0261C41.4643 38.7651 41.7809 38.4964 42.0939 38.2117C50.6955 30.3954 60.7737 38.8455 60.7737 38.8455ZM60.9733 30.23C57.6605 31.7609 54.7277 29.9522 54.7277 29.9522C56.3312 32.9203 59.0778 34.0953 61.4945 34.9212C63.9114 35.7477 72.8482 34.0416 74.5565 33.3957C77.8587 32.1478 81.0991 33.6337 81.0991 33.6337C77.208 26.027 64.2862 28.6994 60.9733 30.23Z" fill="#B9FF66"/>
</svg>